/* XPM */
static char * apple_xpm[] = {
"8 8 23 1",
" 	c #FFFFFF",
".	c #8F6D56",
"+	c #7C4800",
"@	c #FFEAEA",
"#	c #58FF56",
"$	c #0CFF00",
"%	c #FFF0F0",
"&	c #FF6D6D",
"*	c #FF0300",
"=	c #FF8686",
"-	c #FFE3E3",
";	c #FF4848",
">	c #FFC1C1",
",	c #FFC3C3",
"'	c #FF3736",
")	c #FFCDCD",
"!	c #FFD4D4",
"~	c #FFE9E9",
"{	c #FCE9E9",
"]	c #FF7878",
"^	c #FAF9F9",
"/	c #FBE6E6",
"(	c #FF5756",
"   .++  ",
" @ #$   ",
"%&*$$*= ",
"-&****;>",
",'*****)",
"!*****;~",
"{]****= ",
"^/(**&  "};
