/* XPM */
static char * snake_head_up_xpm[] = {
"8 8 2 1",
" 	c #ED8100",
".	c #000000",
"  .  .  ",
"  .  .  ",
"        ",
"        ",
"        ",
"        ",
"        ",
"        "};
