/* XPM */
static char * snake_head_left_xpm[] = {
"8 8 2 1",
" 	c #ED8100",
".	c #000000",
"        ",
"        ",
"..      ",
"        ",
"        ",
"..      ",
"        ",
"        "};
